<svg xmlns="http://www.w3.org/2000/svg" xml:space="preserve" width="1500" height="123" viewBox="0 0 1500 123" data-version="1" data-id="lg_IZ0vHNGU2QN67RYpJu"><g id="outer-wrapper" data-padding="20" transform="matrix(1,0,0,1,0,0)"><g id="inner-wrapper" transform="matrix(0.9650959860383944,0,0,0.9650959860383944,10,2.1465968586387447)"><rect width="435" height="91.53" x="149.02811410139327" y="-383.5725" fill="none" rx="0" ry="0" transform="translate(469.33 400.5)"></rect><path fill="#010c80" d="M643.3281141013933 88.76249999999999Q637.1681141013934 88.76249999999999 632.3081141013934 86.57249999999999Q627.4481141013933 84.39249999999998 624.6581141013934 79.97249999999997Q621.8581141013934 75.56249999999994 621.8581141013934 68.91249999999997V67.21249999999998H628.5881141013934V68.91249999999997Q628.5881141013934 75.96249999999998 632.7181141013933 79.40249999999997Q636.8481141013934 82.85249999999996 643.3281141013935 82.85249999999996Q649.9681141013933 82.85249999999996 653.4481141013933 79.85249999999996Q656.9381141013934 76.85249999999996 656.9381141013934 72.32249999999999Q656.9381141013934 69.16249999999997 655.3581141013934 67.29250000000002Q653.7781141013935 65.4325 650.9381141013934 64.26250000000005Q648.1081141013934 63.08250000000004 644.2981141013935 62.19250000000005L640.0881141013934 61.14250000000004Q635.1481141013934 59.84250000000003 631.3381141013934 57.982500000000016T625.3881141013934 53.08250000000004Q623.2381141013935 50.04250000000002 623.2381141013935 45.262500000000045T625.6281141013934 37.002500000000055T632.3481141013934 31.652500000000032Q636.6881141013935 29.792500000000018 642.3581141013934 29.792500000000018Q648.1081141013934 29.792500000000018 652.6781141013935 31.782500000000027Q657.2581141013935 33.762500000000045 659.8881141013934 37.61250000000001Q662.5281141013935 41.462500000000034 662.5281141013935 47.29250000000002V50.692499999999995H655.7981141013935V47.29250000000002Q655.7981141013935 43.16250000000002 654.0581141013935 40.65250000000003Q652.3181141013935 38.13250000000005 649.2781141013935 36.922500000000014Q646.2381141013934 35.702499999999986 642.3581141013934 35.702499999999986Q636.7681141013935 35.702499999999986 633.3681141013934 38.172500000000014Q629.9581141013933 40.65250000000003 629.9581141013933 45.182500000000005Q629.9581141013933 48.182500000000005 631.4181141013934 50.04250000000002T635.5481141013934 53.08250000000004Q638.2281141013933 54.252500000000055 641.9481141013933 55.14250000000004L646.1581141013934 56.20250000000004Q651.0981141013933 57.252500000000055 655.0281141013933 59.07250000000005Q658.9581141013933 60.90250000000003 661.3081141013932 64.01250000000005Q663.6581141013934 67.13250000000005 663.6581141013934 72.15250000000003Q663.6581141013934 77.1825 661.1481141013934 80.90250000000003Q658.6381141013934 84.63250000000005 654.0581141013934 86.69250000000005Q649.4781141013933 88.76250000000005 643.3281141013933 88.76250000000005M680.7481141013933 103.84250000000003H674.3481141013934V48.03250000000003H680.5881141013934V54.59250000000003H681.7181141013933Q683.2581141013934 51.59250000000003 686.6981141013933 49.24250000000001Q690.1481141013934 46.892499999999984 696.2981141013935 46.892499999999984Q701.4081141013934 46.892499999999984 705.6581141013934 49.36250000000001T712.4581141013934 56.3725T715.0081141013935 67.30250000000001V68.36250000000001Q715.0081141013935 74.6825 712.4981141013935 79.29250000000002Q709.9881141013935 83.91250000000002 705.7381141013935 86.34250000000003T696.2981141013935 88.77250000000004Q692.1681141013935 88.77250000000004 689.2981141013935 87.68250000000006Q686.4181141013935 86.58250000000004 684.6381141013934 84.88250000000005T681.8781141013934 81.40250000000003H680.7481141013935ZM694.5981141013934 83.10250000000002Q700.7581141013934 83.10250000000002 704.5981141013934 79.17250000000001Q708.4481141013933 75.2425 708.4481141013933 68.20249999999999V67.47249999999997Q708.4481141013933 60.42249999999996 704.5981141013934 56.49249999999995Q700.7581141013934 52.56249999999994 694.5981141013934 52.56249999999994Q688.5281141013934 52.56249999999994 684.5981141013934 56.49249999999995T680.6681141013934 67.47249999999997V68.20249999999999Q680.6681141013934 75.2425 684.5981141013934 79.17250000000001T694.5981141013934 83.10250000000002M744.6581141013934 88.77250000000004Q738.6681141013934 88.77250000000004 734.1281141013934 86.22250000000003T727.0781141013935 79.05250000000001T724.5681141013935 68.36250000000001V67.39249999999998Q724.5681141013935 61.23249999999996 727.0781141013935 56.61250000000001Q729.5881141013934 52.0025 734.0481141013935 49.442499999999995Q738.4981141013934 46.892499999999984 744.2481141013934 46.892499999999984Q749.8381141013934 46.892499999999984 754.1381141013934 49.28249999999997Q758.4281141013934 51.67249999999996 760.8581141013934 56.13249999999999Q763.2881141013935 60.58249999999998 763.2881141013935 66.58249999999998V69.4925H730.9681141013934Q731.2081141013934 75.89249999999998 735.0981141013934 79.4925Q738.9881141013934 83.10250000000002 744.8181141013935 83.10250000000002Q749.9181141013935 83.10250000000002 752.6781141013935 80.7525Q755.4281141013935 78.40249999999997 756.8881141013934 75.16250000000002L762.3981141013934 77.83250000000004Q761.1781141013934 80.35250000000002 759.0381141013935 82.86250000000001Q756.8881141013934 85.3725 753.4481141013935 87.07249999999999T744.6581141013934 88.77249999999998M731.0481141013935 64.23249999999996H756.8081141013935Q756.4881141013934 58.72249999999997 753.0381141013935 55.642499999999984Q749.5981141013934 52.5625 744.2481141013934 52.5625Q738.8281141013935 52.5625 735.3381141013934 55.642499999999984Q731.8581141013934 58.72249999999997 731.0481141013934 64.23249999999996M780.8781141013934 87.64249999999998H774.4781141013933V48.03249999999997H780.7081141013933V54.7525H781.8481141013934Q783.1381141013934 51.91250000000002 786.2581141013934 49.61250000000001Q789.3781141013934 47.30250000000001 795.4581141013933 47.30250000000001Q799.9081141013934 47.30250000000001 803.4281141013934 49.16250000000002Q806.9581141013933 51.022500000000036 809.0581141013935 54.672500000000014Q811.1681141013934 58.3125 811.1681141013934 63.66250000000002V87.64250000000004H804.7681141013935V64.15250000000003Q804.7681141013935 58.232500000000016 801.8081141013935 55.56250000000006Q798.8581141013934 52.89250000000004 793.8381141013934 52.89250000000004Q788.0881141013934 52.89250000000004 784.4781141013934 56.61250000000007Q780.8781141013934 60.342500000000086 780.8781141013934 67.71250000000009ZM840.8881141013934 88.77249999999998Q835.7781141013933 88.77249999999998 831.4881141013933 86.34249999999997T824.6881141013934 79.29249999999996Q822.1781141013934 74.68249999999995 822.1781141013934 68.36249999999995V67.30249999999995Q822.1781141013934 60.99249999999995 824.6881141013934 56.412499999999966T831.4481141013933 49.362499999999955T840.8881141013934 46.89249999999993Q845.0181141013933 46.89249999999993 847.8881141013934 47.99249999999995Q850.7681141013933 49.082499999999925 852.5481141013934 50.74249999999995T855.3081141013934 54.26249999999993H856.4381141013934V30.94249999999994H862.8381141013933V87.64249999999993H856.5981141013933V81.07249999999993H855.4681141013933Q853.8481141013933 84.07249999999993 850.4481141013933 86.42249999999996Q847.0381141013933 88.77249999999998 840.8881141013934 88.77249999999998M842.5881141013933 83.10249999999996Q848.7381141013933 83.10249999999996 852.5881141013933 79.17249999999996T856.4381141013934 68.20249999999993V67.47249999999991Q856.4381141013934 60.4224999999999 852.5881141013933 56.49249999999989T842.5881141013933 52.562499999999886Q836.5081141013933 52.562499999999886 832.5781141013933 56.49249999999989Q828.6581141013934 60.4224999999999 828.6581141013934 67.47249999999991V68.20249999999993Q828.6581141013934 75.24249999999995 832.5781141013933 79.17249999999996Q836.5081141013933 83.10249999999996 842.5881141013933 83.10249999999996M882.6781141013934 103.84249999999997H876.2781141013933V48.03249999999997H882.5181141013933V54.59249999999997H883.6581141013934Q885.1881141013934 51.59249999999997 888.6381141013934 49.24249999999995Q892.0781141013935 46.89249999999993 898.2381141013933 46.89249999999993Q903.3381141013934 46.89249999999993 907.5881141013934 49.362499999999955T914.3881141013934 56.372499999999945Q916.9481141013933 60.912499999999966 916.9481141013933 67.30249999999995V68.36249999999995Q916.9481141013933 74.68249999999995 914.4381141013934 79.29249999999996Q911.9181141013934 83.91249999999997 907.6681141013934 86.34249999999997T898.2381141013933 88.77249999999998Q894.0981141013934 88.77249999999998 891.2281141013933 87.6825Q888.3481141013934 86.58249999999998 886.5681141013935 84.8825T883.8181141013935 81.40249999999997H882.6781141013934ZM896.5281141013933 83.10250000000002Q902.6881141013934 83.10250000000002 906.5381141013933 79.17250000000001T910.3881141013934 68.20249999999999V67.47249999999997Q910.3881141013934 60.42249999999996 906.5381141013933 56.49249999999995T896.5281141013933 52.5625Q890.4581141013933 52.5625 886.5281141013933 56.49250000000001T882.5981141013934 67.47250000000003V68.20250000000004Q882.5981141013934 75.24250000000006 886.5281141013933 79.17250000000007T896.5281141013933 83.10250000000008M940.5981141013934 88.7725000000001Q936.4681141013933 88.7725000000001 933.0681141013935 87.31250000000011Q929.6581141013934 85.85250000000013 927.7181141013933 83.10250000000013T925.7781141013933 76.3825000000001Q925.7781141013933 72.3325000000001 927.7181141013933 69.69250000000011Q929.6581141013934 67.06250000000011 933.0681141013935 65.72250000000008Q936.4681141013933 64.3925000000001 940.6781141013934 64.3925000000001H954.0381141013935V61.47250000000008Q954.0381141013935 57.2625000000001 951.5681141013935 54.832500000000095T944.2381141013933 52.40250000000009Q939.4581141013933 52.40250000000009 936.7881141013933 54.71250000000009T933.1481141013934 60.91250000000008L927.1481141013934 58.96250000000009Q928.1181141013934 55.6425000000001 930.2281141013933 52.93250000000012Q932.3381141013934 50.21250000000009 935.8581141013934 48.55250000000012T944.3181141013935 46.8925000000001Q951.9381141013934 46.8925000000001 956.1481141013934 50.822500000000105T960.3581141013934 61.88250000000011V79.78250000000008Q960.3581141013934 82.21250000000009 962.6281141013934 82.21250000000009H966.2781141013935V87.6425000000001H960.6881141013934Q958.0081141013935 87.6425000000001 956.3881141013934 86.1425000000001T954.7681141013935 82.1325000000001V81.72250000000008H953.7981141013935Q952.9081141013934 83.2625000000001 951.4081141013934 84.92250000000007T947.3181141013935 87.68250000000006Q944.7281141013933 88.77250000000004 940.5981141013934 88.77250000000004M941.3281141013935 83.26250000000005Q946.9981141013933 83.26250000000005 950.5181141013935 79.90250000000003T954.0381141013935 70.46250000000003V69.57250000000005H940.9181141013934Q937.1181141013934 69.57250000000005 934.6381141013934 71.23250000000007Q932.1681141013934 72.8925000000001 932.1681141013934 76.21250000000009Q932.1681141013934 79.54250000000008 934.7281141013933 81.40250000000009Q937.2781141013933 83.2625000000001 941.3281141013935 83.2625000000001M1000.1381141013935 87.6325000000001H989.6081141013934Q986.2081141013936 87.6325000000001 984.3881141013934 85.7625000000001Q982.5681141013935 83.90250000000009 982.5681141013935 80.66250000000008V53.61250000000007H970.6581141013934V48.02250000000009H982.5681141013935V33.92250000000007H988.9681141013933V48.02250000000009H1001.9281141013935V53.61250000000007H988.9681141013933V79.69250000000005Q988.9681141013933 82.12250000000006 991.3081141013935 82.12250000000006H1000.1381141013935ZM1018.6781141013935 87.6425000000001H1012.2781141013934V30.94250000000011H1018.6781141013935V54.342500000000086H1019.8181141013933Q1020.6281141013933 52.562500000000114 1022.2881141013934 50.98250000000007T1026.578114101393 48.35250000000008T1033.2581141013934 47.302500000000066Q1037.7181141013934 47.302500000000066 1041.2381141013934 49.20250000000004T1046.868114101393 54.712500000000034Q1048.9781141013932 58.31250000000006 1048.9781141013932 63.66250000000002V87.64250000000004H1042.578114101393V64.15250000000003Q1042.578114101393 58.232500000000016 1039.618114101393 55.56250000000006T1031.638114101393 52.89250000000004Q1025.888114101393 52.89250000000004 1022.2881141013934 56.61250000000007Q1018.6781141013932 60.342500000000086 1018.6781141013932 67.71250000000009ZM595.1931141013935 40.957500000000095H589.0551141013934L582.4521141013934 45.58750000000009H593.2341141013934Q594.0011141013935 45.58750000000009 594.7271141013933 45.7795000000001A6.71 6.71 0 0 1 599.8921141013934 52.342500000000086V111.38950000000011A9.59 9.59 0 0 0 604.6051141013934 103.12850000000009V50.49250000000001A9.453 9.453 0 0 0 595.1931141013933 40.95749999999998 "></path><path fill="#010c80" d="M593.4801141013933 49.547500000000014H488.4841141013933A1.986 1.986 0 1 1 488.4841141013933 45.5745H496.5661141013933L499.2521141013933 43.642499999999984L502.9781141013933 40.94349999999997H489.6621141013933A9.51 9.51 0 0 0 480.16811410139326 50.46549999999996V113.37549999999999C480.16811410139326 118.65049999999997 484.41511410139327 122.91050000000001 489.6621141013933 122.91050000000001H586.7541141013933A9.51 9.51 0 0 0 596.2481141013933 113.37549999999999V52.315499999999986A2.77 2.77 0 0 0 593.4801141013933 49.547500000000014 "></path><path fill="#010c80" d="M528.2681141013933 42.79250000000002A13.769 13.769 0 1 1 555.5721141013933 45.77950000000004H576.9171141013933L590.3701141013933 35.77950000000004L563.3131141013934 0.08950000000004371L501.7861141013933 45.77950000000004H528.4601141013933A13.7 13.7 0 0 1 528.2821141013933 42.79350000000005M530.5281141013933 0.6924999999999955L504.9511141013933 39.57349999999997L544.8731141013933 10.146499999999946Z "></path></g><rect width="573" height="123" x="463.5" y="0" id="space-saver" fill="transparent" stroke="transparent"></rect></g></svg>